<svg width="100mm" height="100mm" version="1.1" viewBox="0 0 100 100" xmlns="http://www.w3.org/2000/svg">
<path d="m25.874 60.324c23.721-23.321 48.024-50.136 69.449-59.674-1.4167 16.228-9.6164 28.734-12.374 32.799l-8.2036-5.0196 5.76 9.7781c-8.712 13.271-17.33 24.101-26.364 33.824l-19.072-0.32532-23.22 23.681-6.4799 3.5225 3.5277-5.6604 22.635-24.178z" stroke="#fff" style="paint-order:markers stroke fill"/>
<path d="m10.46 92.922 50.017-52.019 30.01-32.193-28.01 33.466-51.23 52.846-3.5309 1.7541z" fill="#fff" stroke-width="1.6216"/>
<path d="m5.3707 98.909c7.3589-1.2055 15.659 0.18114 22.077-3.6166 3.9767-2.3533 4.4825-8.7174 8.5484-10.913 5.7282-3.0931 19.461-1.6369 19.461-1.6369s-14.14-2.5875-20.189 0.36376c-4.0677 1.9845-4.7272 8.1239-8.5484 10.549-6.1876 3.9271-14.24 3.5248-21.349 5.2534z" stroke="#fff" style="paint-order:markers stroke fill"/>
</svg>
