<svg width="65mm" height="65mm" version="1.1" viewBox="0 0 65 65" xmlns="http://www.w3.org/2000/svg">
<path d="m17.312 39.003c14.628-14.381 29.615-30.917 42.827-36.799-0.87363 10.007-5.9301 17.719-7.6306 20.226l-5.0589-3.0954 3.552 6.0298c-5.3724 8.184-10.687 14.862-16.258 20.858l-11.761-0.20061-14.319 14.603-3.9959 2.1722 2.1754-3.4906 13.958-14.91z"/>
<path d="m7.8063 59.105 30.844-32.078 18.506-19.852-17.273 20.637-31.592 32.588-2.1774 1.0817z" fill="#fff"/>
<path d="m4.6681 62.797c4.538-0.74339 9.6565 0.1117 13.614-2.2302 2.4523-1.4512 2.7642-5.3757 5.2715-6.7296 3.5324-1.9074 12.001-1.0094 12.001-1.0094s-8.7194-1.5956-12.45 0.22432c-2.5084 1.2238-2.9151 5.0097-5.2715 6.5053-3.8157 2.4217-8.7815 2.1736-13.165 3.2396z"/>
</svg>
